<svg id="Layer_1" data-name="Layer 1" xmlns="http://www.w3.org/2000/svg" xmlns:xlink="http://www.w3.org/1999/xlink" viewBox="0 0 300 345"><defs><style>.cls-1{fill:url(#linear-gradient);}.cls-2{fill:#9bd4ee;}.cls-3{fill:#416eb5;}.cls-4{fill:#15141a;}.cls-5{fill:#fff;}.cls-6{fill:#3d5d80;}.cls-7{fill:#1e4059;}.cls-8{fill:#fbf0ee;}.cls-9{fill:#c4ada9;}.cls-10{fill:#4c0000;}.cls-11{fill:#280e0e;}.cls-12{fill:#cf1f3d;}.cls-13,.cls-14{fill:none;stroke-linecap:round;stroke-miterlimit:10;stroke-width:6px;}.cls-13{stroke:#1a4687;}.cls-14{stroke:#032657;}.cls-15{fill:#182a38;}</style><linearGradient id="linear-gradient" x1="150" y1="356.11" x2="150" y2="161.16" gradientUnits="userSpaceOnUse"><stop offset="0.07" stop-color="#416eb5"/><stop offset="0.54" stop-color="#032657"/></linearGradient></defs><g id="underwater"><path class="cls-1" d="M263.62,345H36.38A36.38,36.38,0,0,1,0,308.62V259.14H300v49.48A36.38,36.38,0,0,1,263.62,345Z"/><rect class="cls-2" y="45" width="300" height="253.39" rx="36.38"/><rect class="cls-3" y="211" width="300" height="87.39" rx="36.38"/><ellipse class="cls-4" cx="244.2" cy="166.97" rx="21.36" ry="23.32" transform="translate(-42.33 93.41) rotate(-19.96)"/><ellipse class="cls-4" cx="55.8" cy="166.97" rx="23.32" ry="21.36" transform="translate(-120.19 162.42) rotate(-70.04)"/><circle class="cls-5" cx="247.78" cy="156.1" r="6.56"/><circle class="cls-5" cx="52.22" cy="156.1" r="6.56"/><path class="cls-6" d="M98.55,247.65l8.6-7.61,8.61,7.61a51.61,51.61,0,0,0,68.47,0l8.6-7.61,8.61,7.62a51.65,51.65,0,0,0,64.33,3.3C259.33,82.2,150,59.13,150,59.13S40.67,82.2,34.23,251A51.63,51.63,0,0,0,98.55,247.65Z"/><path class="cls-7" d="M201.44,230.2l-8.61-7.63-8.6,7.62a51.61,51.61,0,0,1-68.47,0l-8.61-7.62-8.6,7.62a51.62,51.62,0,0,1-63.3,4c-.45,5.43-.8,11-1,16.76a51.62,51.62,0,0,0,64.32-3.31l8.6-7.62,8.61,7.62a51.61,51.61,0,0,0,68.47,0l8.6-7.62,8.61,7.63a51.65,51.65,0,0,0,64.33,3.3c-.22-5.76-.57-11.33-1-16.76A51.63,51.63,0,0,1,201.44,230.2Z"/><path class="cls-8" d="M150,80.85S52.22,128.32,52.22,237.32v21.87a51.6,51.6,0,0,0,46.33-11.54l8.6-7.61,8.61,7.61a51.61,51.61,0,0,0,68.47,0l8.6-7.61,8.61,7.62a51.62,51.62,0,0,0,46.34,11.54V237.32C247.78,126.09,150,80.85,150,80.85Z"/><path class="cls-9" d="M201.44,230.2l-8.61-7.63-8.6,7.62a51.61,51.61,0,0,1-68.47,0l-8.61-7.62-8.6,7.62a51.6,51.6,0,0,1-46.33,11.54v17.46a51.6,51.6,0,0,0,46.33-11.54l8.6-7.62,8.61,7.62a51.61,51.61,0,0,0,68.47,0l8.6-7.62,8.61,7.63a51.62,51.62,0,0,0,46.34,11.54V241.74A51.62,51.62,0,0,1,201.44,230.2Z"/><path class="cls-10" d="M98.55,247.65l8.6-7.61,8.61,7.61a51.61,51.61,0,0,0,68.47,0l8.6-7.61,8.61,7.62A51.46,51.46,0,0,0,227.9,260C225.39,133.21,150,121,150,121S74.61,133.21,72.1,260A51.44,51.44,0,0,0,98.55,247.65Z"/><path class="cls-11" d="M150,181.32c-39,0-52.16,37.6-52.16,66.41,0,.17,0,.34,0,.52.24-.2.47-.39.7-.6l8.6-7.61,8.61,7.61a51.61,51.61,0,0,0,68.47,0l8.6-7.61,8.61,7.62c.23.21.47.4.71.6,0-.18,0-.35,0-.53C202.16,218.92,189,181.32,150,181.32Z"/><path class="cls-5" d="M111,143.92l29.69,18.74-11.22-33.32A91.92,91.92,0,0,0,111,143.92Z"/><path class="cls-5" d="M103.51,152.45a118.5,118.5,0,0,0-12,18.62l34,8.77Z"/><path class="cls-5" d="M76.48,216.09q-1.77,9.15-2.87,19.48l34.71-4.77Z"/><path class="cls-5" d="M79.61,202.37l35.06.87L86.18,182.7A166.51,166.51,0,0,0,79.61,202.37Z"/><path class="cls-5" d="M196.49,152.44l-22,27.4,34-8.77A119.08,119.08,0,0,0,196.49,152.44Z"/><path class="cls-5" d="M165.34,126.51C156.31,122,150,121,150,121s-6.31,1-15.34,5.56L150,154.81Z"/><path class="cls-5" d="M223.53,216.1l-31.84,14.71,34.7,4.77Q225.3,225.25,223.53,216.1Z"/><path class="cls-5" d="M189,143.92a92.2,92.2,0,0,0-18.47-14.58l-11.22,33.32Z"/><path class="cls-5" d="M213.82,182.7l-28.49,20.55,35.06-.87A165.49,165.49,0,0,0,213.82,182.7Z"/><path class="cls-12" d="M227.9,260a325.51,325.51,0,0,0-6.51-42.12l-1.3-5.13c-.44-1.71-.81-3.43-1.35-5.1-1-3.37-1.92-6.77-3.15-10.05a155.47,155.47,0,0,0-8-19.31c-6.17-12.41-14.13-23.85-24.09-33.11a87.93,87.93,0,0,0-16.24-12,74.11,74.11,0,0,0-9-4.42c-1.54-.64-3.1-1.2-4.65-1.71-.78-.23-1.56-.48-2.33-.67-.39-.11-.77-.21-1.14-.29l-.55-.12-.43-.09h1.6l-.43.09-.55.12c-.37.08-.75.18-1.14.29-.76.19-1.55.44-2.33.68-1.55.51-3.11,1.06-4.64,1.7a72.17,72.17,0,0,0-9,4.43,87.42,87.42,0,0,0-16.23,12c-10,9.25-17.92,20.7-24.09,33.1a157,157,0,0,0-8,19.31c-1.22,3.29-2.12,6.68-3.14,10-.55,1.68-.92,3.4-1.36,5.11l-1.3,5.13A327.26,327.26,0,0,0,72.1,260a227.11,227.11,0,0,1,1.7-43l.88-5.35c.31-1.78.54-3.58,1-5.34.78-3.54,1.48-7.11,2.49-10.6.49-1.75.92-3.53,1.47-5.26l1.71-5.2c.53-1.75,1.23-3.44,1.88-5.15l1-2.56c.32-.86.68-1.7,1.07-2.54a120.78,120.78,0,0,1,10.5-19.43,104.93,104.93,0,0,1,14.17-17.22c1.34-1.31,2.68-2.62,4.13-3.81l2.13-1.83,2.22-1.74c1.46-1.18,3-2.22,4.56-3.32.77-.54,1.58-1,2.37-1.54s1.59-1,2.41-1.48a79.71,79.71,0,0,1,10.17-5.08c1.75-.75,3.55-1.4,5.38-2,.93-.29,1.84-.58,2.81-.83.47-.13.95-.26,1.45-.37l.76-.18.88-.17.81-.13.79.13.88.18.76.17c.5.11,1,.24,1.45.37,1,.25,1.88.55,2.81.84,1.83.6,3.63,1.26,5.38,2a79,79,0,0,1,10.16,5.09c.83.46,1.62,1,2.41,1.48s1.6,1,2.37,1.54c1.53,1.1,3.11,2.13,4.56,3.32l2.22,1.73,2.14,1.84c1.45,1.19,2.78,2.51,4.12,3.81a104.35,104.35,0,0,1,14.17,17.21A122.53,122.53,0,0,1,214.73,175c.8,1.66,1.38,3.4,2.07,5.1s1.35,3.4,1.88,5.15l1.71,5.19c.55,1.74,1,3.51,1.46,5.27,1,3.49,1.72,7.06,2.5,10.59.41,1.77.65,3.57,1,5.35l.88,5.35A227.84,227.84,0,0,1,227.9,260Z"/><path class="cls-13" d="M18.38,274.82l3.82,3.39a23,23,0,0,0,30.46,0l3.83-3.39,3.83,3.39a23,23,0,0,0,30.46,0l3.82-3.39,3.83,3.39a23,23,0,0,0,30.46,0l3.83-3.39"/><path class="cls-13" d="M167.28,274.82l3.82,3.39a23,23,0,0,0,30.47,0l3.82-3.39,3.83,3.39a23,23,0,0,0,30.46,0l3.82-3.39,3.83,3.39a23,23,0,0,0,30.46,0l3.83-3.39"/><path class="cls-14" d="M92.83,318.21l3.82,3.38a23,23,0,0,0,30.46,0l3.83-3.39,3.83,3.39a23,23,0,0,0,30.46,0l3.82-3.39,3.83,3.39a23,23,0,0,0,30.46,0l3.83-3.39"/><path class="cls-15" d="M160,72.79l15,4.78a4,4,0,1,1-4.09,6.57Z"/><path class="cls-15" d="M140,72.79,129.07,84.14a4,4,0,1,1-5.75-5.54,3.93,3.93,0,0,1,1.66-1Z"/><path class="cls-3" d="M263.56,125.39c-5.77,6-15.48,4.55-15.48,4.55s-1.9-9.64,3.88-15.67a8,8,0,1,1,11.6,11.12Z"/><path class="cls-3" d="M280.21,131.24c-5,2.49-10.87-.68-10.87-.68s1-6.55,6.07-9a5.42,5.42,0,1,1,4.8,9.72Z"/><path class="cls-3" d="M40,125.39c5.78,6,15.48,4.55,15.48,4.55s1.9-9.64-3.87-15.67A8,8,0,0,0,40,125.39Z"/><path class="cls-3" d="M23.38,131.24c5.05,2.49,10.86-.68,10.86-.68s-1-6.55-6.06-9a5.42,5.42,0,0,0-4.8,9.72Z"/></g></svg>