<svg id="Layer_1" data-name="Layer 1" xmlns="http://www.w3.org/2000/svg" xmlns:xlink="http://www.w3.org/1999/xlink" viewBox="0 0 300 345"><defs><style>.cls-1{fill:url(#linear-gradient);}.cls-2{fill:#e2e7f5;}.cls-3{fill:#ccbede;}.cls-4{fill:url(#linear-gradient-2);}.cls-5{fill:url(#linear-gradient-3);}.cls-6{fill:url(#linear-gradient-4);}.cls-7{fill:#a15095;}.cls-8{fill:#ce2235;}.cls-9{fill:#8c141c;}.cls-10{fill:#d29fc9;}.cls-11{fill:#f4fbfe;}.cls-12{fill:#fff;}.cls-13{fill:#414042;}.cls-14{fill:#2f2c38;}.cls-15{fill:#15141a;}</style><linearGradient id="linear-gradient" x1="150" y1="356.11" x2="150" y2="161.16" gradientUnits="userSpaceOnUse"><stop offset="0" stop-color="#e0d6ea"/><stop offset="1" stop-color="#ba9ac8"/></linearGradient><linearGradient id="linear-gradient-2" x1="150" y1="276.2" x2="150" y2="49.7" gradientUnits="userSpaceOnUse"><stop offset="0.33" stop-color="#8d68a3" stop-opacity="0"/><stop offset="0.55" stop-color="#7c5c90" stop-opacity="0.14"/><stop offset="0.76" stop-color="#483854" stop-opacity="0.57"/><stop offset="0.88" stop-color="#15141a"/></linearGradient><linearGradient id="linear-gradient-3" x1="75" y1="365.94" x2="75" y2="147.34" gradientUnits="userSpaceOnUse"><stop offset="0" stop-color="#a15095"/><stop offset="0.4" stop-color="#822778"/></linearGradient><linearGradient id="linear-gradient-4" x1="225" y1="365.94" x2="225" y2="147.34" xlink:href="#linear-gradient-3"/></defs><g id="halloween"><path class="cls-1" d="M263.62,345H36.38A36.38,36.38,0,0,1,0,308.62V259.14H300v49.48A36.38,36.38,0,0,1,263.62,345Z"/><rect class="cls-2" y="45" width="300" height="253.39" rx="36.38"/><path class="cls-3" d="M263.62,55.07H225V86.58s4.69,42,75,47.23V91.45A36.38,36.38,0,0,0,263.62,55.07Z"/><path class="cls-3" d="M215.11,55.07H62.42c0-.65.07-1.29.14-2,.09-1.09.27-2.19.46-3.29.1-.54.22-1.09.34-1.62s.26-1.12.36-1.52v-4.9l-3.51.89a22,22,0,0,0-8.14,4,25.91,25.91,0,0,0-5.94,6.57c-.39.6-.75,1.22-1.09,1.84H36.38A36.38,36.38,0,0,0,0,91.45v42.36c30.33-2.27,48.44-11.37,59.24-21A64.43,64.43,0,0,0,74,122.37a93.27,93.27,0,0,0,31.39,8,139.18,139.18,0,0,0,16,.43c1.33,0,2.66,0,4-.08l4-.19c2.66-.09,5.31-.34,8-.56A167.36,167.36,0,0,0,169,124.27a109.56,109.56,0,0,0,29.45-13.22,77.4,77.4,0,0,0,12.67-10.36,59,59,0,0,0,5.39-6.28c.82-1.12,1.61-2.27,2.35-3.47.37-.6.73-1.22,1.07-1.85l.51-1c.17-.35.31-.63.51-1.11l.21-.51V55.07h-6Z"/><rect class="cls-4" y="45" width="300" height="253.39" rx="36.38"/><path class="cls-5" d="M36.38,298.39A36.38,36.38,0,0,1,0,262v46.61A36.38,36.38,0,0,0,36.38,345H150l-43.46-46.61Z"/><path class="cls-6" d="M263.62,298.39H193.46L150,345H263.62A36.38,36.38,0,0,0,300,308.62V262A36.38,36.38,0,0,1,263.62,298.39Z"/><path class="cls-7" d="M69.94,259.14h0a6.65,6.65,0,0,0-6.33-1.95,86.1,86.1,0,0,1-13.39,1.95H39.46c-13.25-.93-28.55-5.65-39.46-20.07V262a36.38,36.38,0,0,0,36.38,36.38h70.16Z"/><path class="cls-7" d="M260.54,259.14H249.78a86.1,86.1,0,0,1-13.39-1.95,6.65,6.65,0,0,0-6.33,1.95h0l-36.6,39.25h70.16A36.38,36.38,0,0,0,300,262V239.07C289.09,253.49,273.79,258.21,260.54,259.14Z"/><path class="cls-3" d="M190.64,263.2c12.49,13.29,8,20-9.39,14.59-7.75-2.39-18-4.16-31.25-4.16s-23.5,1.77-31.25,4.16c-17.42,5.38-21.88-1.3-9.39-14.59,9.71-10.34,24.31-15.79,40.64-15.79S180.93,252.86,190.64,263.2Z"/><path class="cls-8" d="M199.45,272.57c-2.3,0-5.25-1.38-7.32-2.54-7.23-4.06-20.41-8.89-42.13-8.89S115.1,266,107.87,270c-2.07,1.16-5,2.54-7.32,2.54a3.69,3.69,0,0,1-3.11-1.37,4.59,4.59,0,0,1-.46-4.13c6.07-22.3,26.38-36.15,53-36.15s46.95,13.85,53,36.15a4.59,4.59,0,0,1-.46,4.13A3.69,3.69,0,0,1,199.45,272.57Z"/><path class="cls-9" d="M150,232.92c24.42,0,45,12.19,51.09,34.67.59,2.18-.2,3-1.64,3-1.64,0-4.11-1-6.34-2.29-8-4.45-21.45-9.14-43.11-9.14s-35.16,4.69-43.11,9.14c-2.23,1.26-4.7,2.29-6.34,2.29-1.44,0-2.23-.8-1.64-3,6.12-22.48,26.67-34.67,51.09-34.67m0-4c-27.58,0-48.64,14.42-54.95,37.62a6.44,6.44,0,0,0,.81,5.87,5.65,5.65,0,0,0,4.69,2.16c2.19,0,5-.94,8.3-2.8,7-3.93,19.87-8.63,41.15-8.63s34.13,4.7,41.15,8.63c3.32,1.86,6.11,2.8,8.3,2.8a5.65,5.65,0,0,0,4.69-2.16,6.44,6.44,0,0,0,.81-5.87c-6.31-23.2-27.37-37.62-54.95-37.62Z"/><path class="cls-10" d="M193.11,281.69a101.56,101.56,0,0,0-21.4-4.9c-3.6-.45-7.21-.76-10.82-1s-7.26-.27-10.89-.28-7.26.09-10.88.28-7.23.52-10.83,1a102.44,102.44,0,0,0-21.4,4.89,44.61,44.61,0,0,1,9.72-5.83,65.55,65.55,0,0,1,10.8-3.7,87.77,87.77,0,0,1,11.23-2c3.78-.41,7.57-.57,11.36-.61a113.62,113.62,0,0,1,11.36.62,86.06,86.06,0,0,1,11.23,2,64.21,64.21,0,0,1,10.79,3.7A44.48,44.48,0,0,1,193.11,281.69Z"/><path class="cls-11" d="M108.63,249.51c1.23,5.77,2.56,11.27,3.85,16.07.24.89.47,1.77.71,2.61,1.48,5.33,2.84,8.93,3.81,8.93,1.14,0,2.79-4.89,4.56-11.71l.81-3.12c2.35-9.05,4.75-18.24,6.28-25.88A47.78,47.78,0,0,0,108.63,249.51Z"/><path class="cls-11" d="M171.35,236.41c1.53,7.64,3.93,16.83,6.28,25.88l.81,3.12c1.77,6.82,3.42,11.71,4.56,11.71,1,0,2.33-3.6,3.81-8.93.24-.84.47-1.72.71-2.61,1.29-4.8,2.62-10.3,3.85-16.07A47.78,47.78,0,0,0,171.35,236.41Z"/><path class="cls-10" d="M148.39,150a50.42,50.42,0,0,1,2.11,11.68,48.15,48.15,0,0,1-.64,12.07,32.05,32.05,0,0,1-4.56,11.72,24.84,24.84,0,0,1-4.35,4.94,23.71,23.71,0,0,1-5.62,3.55l-2.76,1.09a13,13,0,0,0-2.07,1.08,7.41,7.41,0,0,0-2.76,3,6.45,6.45,0,0,0-.55,1.92,8.41,8.41,0,0,0,0,2.12,8,8,0,0,0,.62,2,6.9,6.9,0,0,0,1.3,1.77,21.58,21.58,0,0,0,4.17,3.18,56,56,0,0,0,5,2.64c3.45,1.66,7.08,3,10.76,4.45a56,56,0,0,1-11.75-1.68,41.79,41.79,0,0,1-5.77-1.89,26.09,26.09,0,0,1-2.82-1.37,16.76,16.76,0,0,1-2.73-1.84,11.49,11.49,0,0,1-2.46-2.66,9.81,9.81,0,0,1-.89-1.73,13.19,13.19,0,0,1-.57-1.71,12.46,12.46,0,0,1-.39-3.67,12.09,12.09,0,0,1,.8-3.73,13,13,0,0,1,4.68-5.73,18.06,18.06,0,0,1,3.07-1.67l2.66-1.09a19.41,19.41,0,0,0,7.75-6.25,29.69,29.69,0,0,0,2.69-4.51,41.71,41.71,0,0,0,1.95-5.08,64,64,0,0,0,2.28-11A107.88,107.88,0,0,0,148.39,150Z"/><circle class="cls-3" cx="243.16" cy="189.94" r="44.01"/><path class="cls-10" d="M287.18,189.94A34.22,34.22,0,0,1,286,207.68a39.79,39.79,0,0,1-25.09,25.1A34,34,0,0,1,243.16,234a64.14,64.14,0,0,0,15.94-5.53,51.39,51.39,0,0,0,22.55-22.54A64.42,64.42,0,0,0,287.18,189.94Z"/><path class="cls-12" d="M284.16,181.31c3.43,11.92-72.65,44.51-78.92,22.72a41.06,41.06,0,1,1,78.92-22.72Z"/><path class="cls-13" d="M262.72,199.3c-.25-1.19-.54-2.39-.89-3.59-5.2-18.07-17.5-30.4-31.52-26.36s-17.88,21-12.68,39.08c.29,1,.6,1.95.94,2.9C230.73,211.72,248.66,206.09,262.72,199.3Z"/><path class="cls-13" d="M261.74,124.74a83.25,83.25,0,0,0-22.63,0,53.4,53.4,0,0,0-20,6.92,60.7,60.7,0,0,0-15.88,14.16,48.29,48.29,0,0,1-4,4.61,20.53,20.53,0,0,1-2.53,2.16,14.5,14.5,0,0,1-3.06,1.77,9.23,9.23,0,0,1-3.74.77,6.59,6.59,0,0,1-3.65-1.15,8.41,8.41,0,0,1-3.33-5.44,8.87,8.87,0,0,0,4.54,2.82,4.32,4.32,0,0,0,3.7-1.34,18.07,18.07,0,0,0,3-3.79c.93-1.49,1.66-3,2.78-4.82a50.21,50.21,0,0,1,17.64-17.47,45.54,45.54,0,0,1,24.15-6,48.21,48.21,0,0,1,12.07,1.91A38.68,38.68,0,0,1,261.74,124.74Z"/><path class="cls-13" d="M177.57,143.44a49.84,49.84,0,0,0,.16,5,13.77,13.77,0,0,0,1,4.29,8.89,8.89,0,0,0,2.53,3.39,19.25,19.25,0,0,0,1.87,1.46c.67.47,1.42.84,2.16,1.41a12.12,12.12,0,0,1-2.69,0,9.08,9.08,0,0,1-2.64-.86,7.6,7.6,0,0,1-1.23-.72c-.38-.31-.75-.64-1.12-1a9.06,9.06,0,0,1-1.63-2.47,9.83,9.83,0,0,1-.63-5.61A10.28,10.28,0,0,1,177.57,143.44Z"/><circle class="cls-3" cx="56.84" cy="189.94" r="44.01"/><path class="cls-10" d="M12.82,189.94a64.42,64.42,0,0,0,5.53,15.94A51.39,51.39,0,0,0,40.9,228.42,64.14,64.14,0,0,0,56.84,234a34,34,0,0,1-17.75-1.17A39.79,39.79,0,0,1,14,207.68,34.22,34.22,0,0,1,12.82,189.94Z"/><path class="cls-12" d="M15.84,181.31C12.41,193.23,88.49,225.82,94.76,204a41.06,41.06,0,0,0-78.92-22.72Z"/><path class="cls-13" d="M37.28,199.3c.25-1.19.54-2.39.89-3.59,5.2-18.07,17.5-30.4,31.52-26.36s17.88,21,12.68,39.08c-.29,1-.6,1.95-.94,2.9C69.27,211.72,51.34,206.09,37.28,199.3Z"/><path class="cls-13" d="M38.26,124.74a38.68,38.68,0,0,1,10.92-4.95,48.21,48.21,0,0,1,12.07-1.91,45.54,45.54,0,0,1,24.15,6A50.21,50.21,0,0,1,103,141.38c1.12,1.86,1.85,3.33,2.78,4.82a18.07,18.07,0,0,0,3,3.79,4.32,4.32,0,0,0,3.7,1.34,8.87,8.87,0,0,0,4.54-2.82,8.41,8.41,0,0,1-3.33,5.44,6.59,6.59,0,0,1-3.65,1.15,9.23,9.23,0,0,1-3.74-.77,14.5,14.5,0,0,1-3.06-1.77,20.53,20.53,0,0,1-2.53-2.16,48.29,48.29,0,0,1-4-4.61,60.7,60.7,0,0,0-15.88-14.16,53.4,53.4,0,0,0-20-6.92A83.25,83.25,0,0,0,38.26,124.74Z"/><path class="cls-13" d="M122.43,143.44a10.28,10.28,0,0,1,2.19,4.89,9.83,9.83,0,0,1-.63,5.61,9.06,9.06,0,0,1-1.63,2.47c-.37.32-.74.65-1.12,1a7.6,7.6,0,0,1-1.23.72,9.08,9.08,0,0,1-2.64.86,12.12,12.12,0,0,1-2.69,0c.74-.57,1.49-.94,2.16-1.41a19.25,19.25,0,0,0,1.87-1.46,8.89,8.89,0,0,0,2.53-3.39,13.77,13.77,0,0,0,1-4.29A49.84,49.84,0,0,0,122.43,143.44Z"/><path class="cls-14" d="M263.62,45H225V76.5s4.69,42,75,47.24V81.38A36.38,36.38,0,0,0,263.62,45Z"/><path class="cls-14" d="M106.54,111.37c84.28,0,111.57-35.54,111.57-35.54V45H36.38A36.38,36.38,0,0,0,0,81.38v42.35c31.93-2.39,50.33-12.35,60.89-22.51C71.36,107.38,86.22,111.37,106.54,111.37Z"/><path class="cls-14" d="M218.11,45V75.83s-16.76,42-101,42-85.4-75-56.14-82.27c0,0-13.76,35.1,32.2,35.1"/><path class="cls-15" d="M221.11,45V76.42l-.21.52c-.2.48-.34.76-.51,1.11l-.51,1c-.34.63-.7,1.25-1.07,1.84-.74,1.21-1.53,2.36-2.35,3.48a59,59,0,0,1-5.39,6.28A77.4,77.4,0,0,1,198.4,101,109.23,109.23,0,0,1,169,114.19a166.58,166.58,0,0,1-31.53,5.7c-2.65.21-5.3.47-8,.56l-4,.19c-1.33.06-2.66,0-4,.08a139.18,139.18,0,0,1-16-.43,93.29,93.29,0,0,1-31.39-8A60.21,60.21,0,0,1,49,91.18a49.89,49.89,0,0,1-8.22-31.86,36.68,36.68,0,0,1,5.32-16.16,25.74,25.74,0,0,1,5.94-6.57,22,22,0,0,1,8.14-4l3.51-.89v4.9c-.1.4-.26,1-.36,1.51s-.24,1.09-.34,1.63c-.19,1.1-.37,2.19-.46,3.29a30.42,30.42,0,0,0,0,6.47,18.3,18.3,0,0,0,5,11c2.92,3,7,5.14,11.44,6.67a100.9,100.9,0,0,0,14.08,3.4,47.24,47.24,0,0,1-15,.4,34.8,34.8,0,0,1-7.55-1.94,25.31,25.31,0,0,1-7-4.13,21.72,21.72,0,0,1-5.29-6.58,23.89,23.89,0,0,1-2.45-8A29.48,29.48,0,0,1,56,42.22a32.31,32.31,0,0,1,.82-3.91c.18-.64.37-1.28.59-1.92s.44-1.22.77-2h0l3.52,4a17.64,17.64,0,0,0-10.47,8,30.7,30.7,0,0,0-4.4,13.5,43.88,43.88,0,0,0,7.27,28,54.15,54.15,0,0,0,22.55,19A87.3,87.3,0,0,0,106,114.31a131.77,131.77,0,0,0,15.42.41c1.29,0,2.59,0,3.88-.08l3.88-.19c2.6-.08,5.17-.33,7.75-.53a161,161,0,0,0,30.38-5.49A103.36,103.36,0,0,0,195.1,96a71.67,71.67,0,0,0,11.67-9.54,53,53,0,0,0,4.86-5.66c.73-1,1.44-2,2.07-3,.32-.51.62-1,.91-1.55l.4-.78c.12-.24.26-.55.31-.68l-.21,1.12V45Z"/></g></svg>