<svg id="Layer_1" data-name="Layer 1" xmlns="http://www.w3.org/2000/svg" xmlns:xlink="http://www.w3.org/1999/xlink" viewBox="0 0 300 345"><defs><style>.cls-1{fill:#f6a9cb;}.cls-2{fill:none;stroke:#dd7399;stroke-miterlimit:10;stroke-width:4px;}.cls-3{fill:#dd7399;}.cls-4{fill:#c55b86;}.cls-5{fill:url(#linear-gradient);}.cls-6{fill:#8c141c;}.cls-7{fill:#80a55d;}.cls-8{fill:#bcbec4;}.cls-9{fill:#fcebde;}.cls-10{fill:#56884b;}.cls-11{fill:#fff;}.cls-12{fill:#414042;}.cls-13{fill:#366539;}.cls-14{fill:#2f2c38;}.cls-15{fill:#15141a;}.cls-16{fill:#f38dba;}</style><linearGradient id="linear-gradient" x1="150" y1="356.11" x2="150" y2="161.16" gradientUnits="userSpaceOnUse"><stop offset="0" stop-color="#53824b"/><stop offset="0.69" stop-color="#425634"/></linearGradient></defs><g id="halloween"><path class="cls-1" d="M199.19,112.64l25.17,18.41,37.49-.6,11.22,5.91c14.8-12.17,23.25-27.78,19.86-43.66C283,46,252.71,61.8,252.71,61.8c-4.29-18.95-15.32-23.46-30.43-20.72s-23.8,11.47-47.09,21.84a60.49,60.49,0,0,1-7.81,2.93L174,71.39Z"/><path class="cls-2" d="M254.85,58S241.69,87.9,198.21,99.46"/><path class="cls-3" d="M232.14,39.34a21.18,21.18,0,0,1,0,2.14,19.57,19.57,0,0,1-.18,2,38,38,0,0,1-.7,4,36.8,36.8,0,0,1-1.11,3.89,35.93,35.93,0,0,1-1.45,3.78,49.48,49.48,0,0,1-8.83,13.42A58.91,58.91,0,0,1,213.9,74l-1.59,1.21a14.35,14.35,0,0,1-1.62,1.15c-1.12.71-2.27,1.36-3.4,2a19.24,19.24,0,0,1-1.71,1l-1.8.81c-1.2.55-2.4,1.08-3.6,1.58-2.46.89-5,1.58-7.49,2.23,2.2-1.43,4.44-2.67,6.62-4,1.05-.74,2.11-1.44,3.17-2.13a34.87,34.87,0,0,0,3.09-2.16c1-.77,2-1.55,3-2.29a12.62,12.62,0,0,0,1.43-1.2L211.36,71a58.77,58.77,0,0,0,5.22-5.25,53.46,53.46,0,0,0,7.81-12.39,48.23,48.23,0,0,0,2.5-6.87c.28-1.18.61-2.36.82-3.56.12-.59.21-1.19.3-1.78s.15-1.22.2-1.71Z"/><path class="cls-3" d="M210.17,73.17c.31-.73.65-1.68.93-2.55s.51-1.81.67-2.73a26.44,26.44,0,0,0,.54-5.62c0-.48-.05-1-.06-1.43a13.62,13.62,0,0,0-.13-1.42L212,58l-.26-1.43c-.13-1-.41-1.92-.59-2.92s-.51-2-.69-3a18.91,18.91,0,0,1,2,2.45c.28.44.54.9.81,1.36a8.55,8.55,0,0,1,.69,1.43,20.06,20.06,0,0,1,1.59,6.23,22,22,0,0,1-.33,6.48,17.77,17.77,0,0,1-2.44,6.16Z"/><path class="cls-3" d="M259.22,121.29c1.8-2.23,3.68-4.61,5.4-7a72.49,72.49,0,0,0,4.77-7.42,39.52,39.52,0,0,0,3.44-8.09,29.92,29.92,0,0,0,.88-4.35,28.86,28.86,0,0,0,.12-4.57,18.41,18.41,0,0,1,1.26,4.54,22.64,22.64,0,0,1,.12,4.8,31.52,31.52,0,0,1-2.34,9.32,43.08,43.08,0,0,1-4.6,8.37,46.06,46.06,0,0,1-2.93,3.75,35.28,35.28,0,0,1-3.4,3.41Z"/><path class="cls-2" d="M295,107.7s-3.8-34.5-34.58-24.12"/><path class="cls-2" d="M250,118.39s22.23-29.85,2.33-55.8"/><path class="cls-3" d="M241.94,109.32a12.08,12.08,0,0,1-2.14-5.39,14.89,14.89,0,0,1,.28-5.9,15.49,15.49,0,0,1,1-2.82,14.1,14.1,0,0,1,1.58-2.53A12.35,12.35,0,0,1,247.17,89c-.91,1.74-1.87,3.23-2.53,4.86-.4.77-.63,1.61-1,2.39s-.53,1.62-.69,2.46a35.08,35.08,0,0,0-.8,5.09C242,105.59,242,107.38,241.94,109.32Z"/><path class="cls-2" d="M241.51,98.43s-13.36-.16-15.6-10.63"/><path class="cls-4" d="M229.78,40.35c11.24,0,19.38,5.8,22.93,21.45a27.15,27.15,0,0,1,11.45-2.57c9.65,0,22.81,5.62,28.77,33.47,3.39,15.88-5.06,31.49-19.86,43.66l-11.22-5.91-37.49.6-25.17-18.41L174,71.39l-6.57-5.54a60.49,60.49,0,0,0,7.81-2.93c23.29-10.37,32-19.1,47.09-21.84a41.87,41.87,0,0,1,7.5-.73m0-6a48.49,48.49,0,0,0-8.57.83c-10,1.81-17.25,5.87-26.45,11-6,3.36-12.83,7.17-22,11.25a53.8,53.8,0,0,1-7.05,2.65L155,63.22l8.56,7.22,5.83,4.91,24.73,40.42.62,1,1,.7,25.17,18.42,1.62,1.19,2,0,36-.58,9.87,5.2,3.52,1.86,3.08-2.54c17.57-14.44,25.56-32.5,21.91-49.54C291.69,58.2,274,53.23,264.16,53.23a33.26,33.26,0,0,0-7.44.87C252,41,243,34.35,229.78,34.35Z"/><path class="cls-5" d="M263.62,345H36.38A36.38,36.38,0,0,1,0,308.62V259.14H300v49.48A36.38,36.38,0,0,1,263.62,345Z"/><path class="cls-6" d="M273.11,311c-.61,8.21-2.59,14-8.49,14a6.59,6.59,0,0,1-6.1-3.67C257,328,253.93,332.25,248,332.25c-8.29,0-10.95-8.3-11.73-20h-9.74c0,13.66-35.58,11.67-49.73,13.45-2.79.35-5.6,12.62-14.3,19.27H263.62A36.38,36.38,0,0,0,300,308.62V275.91A36.38,36.38,0,0,1,273.11,311Z"/><path class="cls-6" d="M123.19,325.73C109,324,73.46,329,73.46,312.28H36.38A36.37,36.37,0,0,1,0,275.91v32.71A36.38,36.38,0,0,0,36.38,345H137.49C128.79,338.35,126,326.08,123.19,325.73Z"/><path class="cls-7" d="M284.35,117.66a22,22,0,0,0-12.47-5.4c-.73-.07-1.48-.11-2.23-.11a22.92,22.92,0,0,0-9.26,1.94,32.16,32.16,0,0,1-13,2.73c-.5,0-1,0-1.52,0a32,32,0,0,1-16.78-5.73,32.76,32.76,0,0,1-13.9-22.49l0-.31a23.07,23.07,0,0,0-14.62-18.79A32.51,32.51,0,0,1,180.21,45H36.38A36.38,36.38,0,0,0,0,81.38V262a36.38,36.38,0,0,0,36.38,36.38H263.62A36.38,36.38,0,0,0,300,262V125.26A32.32,32.32,0,0,1,284.35,117.66Z"/><path class="cls-3" d="M199.65,225.35a72.84,72.84,0,0,0-27.57-13,93.31,93.31,0,0,0-44.16,0,73,73,0,0,0-27.57,13c-14,11-19.82,26.34-11.88,40.68,8.27,14.94,26.69,5.42,46.45,1A69.32,69.32,0,0,1,150,265.07,69.32,69.32,0,0,1,165.08,267c19.76,4.45,38.19,14,46.46-1C219.48,251.69,213.62,236.38,199.65,225.35Z"/><path class="cls-1" d="M134.92,267A69.32,69.32,0,0,1,150,265.07,69.32,69.32,0,0,1,165.08,267c13.31,3,26,8.28,35.42,6.86a55.15,55.15,0,0,0-7.58-10.92,57.47,57.47,0,0,0-85.84,0,55.1,55.1,0,0,0-7.57,10.92C108.91,275.28,121.61,270,134.92,267Z"/><path class="cls-8" d="M197.24,233.4l2.41-8.05a72.84,72.84,0,0,0-27.57-13L170.39,218a60.45,60.45,0,0,1,20.68,9.73A39.9,39.9,0,0,1,197.24,233.4Z"/><path class="cls-8" d="M108.93,227.7A60.45,60.45,0,0,1,129.61,218l-1.69-5.62a73,73,0,0,0-27.57,13l2.41,8.05A39.9,39.9,0,0,1,108.93,227.7Z"/><path class="cls-9" d="M173.42,241.67l10.27,3.08a9.72,9.72,0,0,0,12.1-6.51l1.45-4.84a39.9,39.9,0,0,0-6.17-5.7A60.45,60.45,0,0,0,170.39,218l-3.48,11.6A9.72,9.72,0,0,0,173.42,241.67Z"/><path class="cls-9" d="M155.36,251.31H144.64a9.72,9.72,0,0,0-9.72,9.72v6A69.32,69.32,0,0,1,150,265.07,69.32,69.32,0,0,1,165.08,267v-6A9.72,9.72,0,0,0,155.36,251.31Z"/><path class="cls-9" d="M116.31,244.75l10.27-3.08a9.72,9.72,0,0,0,6.51-12.1L129.61,218a60.45,60.45,0,0,0-20.68,9.73,39.9,39.9,0,0,0-6.17,5.7l1.45,4.84A9.72,9.72,0,0,0,116.31,244.75Z"/><path class="cls-10" d="M279,189.94c0,20.13-16.32,18.54-36.45,18.54s-36.45,1.59-36.45-18.54a36.45,36.45,0,1,1,72.9,0Z"/><circle class="cls-10" cx="57.42" cy="189.94" r="36.45"/><path class="cls-11" d="M279,200.06c0,20.13-72.9,20.13-72.9,0a36.45,36.45,0,1,1,72.9,0Z"/><circle class="cls-11" cx="57.42" cy="200.06" r="36.45"/><path class="cls-12" d="M66.94,191.25A11.52,11.52,0,0,1,50.2,175.63a20,20,0,1,0,17.18,19.8A19.83,19.83,0,0,0,66.94,191.25ZM39,208.48a4.76,4.76,0,1,1,4.76-4.75A4.75,4.75,0,0,1,39,208.48Z"/><path class="cls-12" d="M268.4,184.52A11.53,11.53,0,0,1,251.76,169a19.76,19.76,0,0,0-2.89-.21,20,20,0,1,0,20,20A20.31,20.31,0,0,0,268.4,184.52Zm-28.1,17.35a4.76,4.76,0,1,1,4.75-4.75A4.76,4.76,0,0,1,240.3,201.87Z"/><path class="cls-13" d="M275.23,218.7A36.87,36.87,0,0,1,260.52,229a49.23,49.23,0,0,1-35.88,0,36.72,36.72,0,0,1-14.71-10.3,73.06,73.06,0,0,0,32.65,7.68,72.63,72.63,0,0,0,32.65-7.68Z"/><path class="cls-13" d="M47.23,247.46a27.15,27.15,0,0,1-14.85-.61,32.45,32.45,0,0,1-21-21,27.09,27.09,0,0,1-.6-14.86,59,59,0,0,0,5,13.05,45.62,45.62,0,0,0,7.85,10.61,44.8,44.8,0,0,0,10.6,7.85A58.86,58.86,0,0,0,47.23,247.46Z"/><path class="cls-13" d="M55.54,257.64a22.26,22.26,0,0,1-9.1,5.16,24.69,24.69,0,0,1-10.71.89,20.11,20.11,0,0,1-10.13-4.34,16.8,16.8,0,0,1-5.72-9,47.76,47.76,0,0,0,8.27,5,27.75,27.75,0,0,0,4.14,1.5,30.36,30.36,0,0,0,4.28.89,53.05,53.05,0,0,0,9.08.41C48.8,258.09,52,257.84,55.54,257.64Z"/><path class="cls-13" d="M276.75,232.92a30.26,30.26,0,0,1-7.11,10.42,38.94,38.94,0,0,1-10.41,7.35,41.1,41.1,0,0,1-6,2.37,37.71,37.71,0,0,1-6.3,1.23,29.86,29.86,0,0,1-12.58-1.18c4.08-1.26,7.92-2.07,11.58-3.43,1.86-.55,3.63-1.36,5.43-2l2.62-1.17a23.46,23.46,0,0,0,2.59-1.22,100.66,100.66,0,0,0,10.11-5.63C270,237.59,273.29,235.34,276.75,232.92Z"/><path class="cls-10" d="M144.24,101.51c-.05-5.33,4-9.65,9-9.4,14.82.77,37,1,53.79-14.47-.83-2-2.62-6.67-6.53-8.18A32.51,32.51,0,0,1,180.21,45H36.38A36.26,36.26,0,0,0,11.31,55S16.07,59.1,21,62.59c4,2.84,8,2.1,4.83,6.08-8,10.08-12.28,23.69-6.93,46.12a53.45,53.45,0,0,0,33.71-11.41c4.67-3.73,11.29-.09,11.31,6.14,0,16,3.2,28.61,16.54,39,0,0,22.08-7.05,27.14-30,1-4.54,6.07-6.49,9.4-3.45a39.83,39.83,0,0,0,18.28,9.91S144.36,115.5,144.24,101.51Z"/><path class="cls-14" d="M176.28,45.72l-.14-.72H81.88s-6-17.17-18.71-20.5S53.51,10,53.51,10s-16.22,9.06-9.77,28.08c0,0-17.1-12.39-36.42,2.26,0,0,6,25,38,21.31,0,0-25.39,16.94-18,46,0,0,34.6-3.06,42.29-26.07,0,0-8.92,39.79,11.61,54.73,0,0,24.76-14.72,22.94-37.93,0,0,10.57,13.06,23.85,16.36,0,0,8.46-13.87,4.23-27.63,0,0,49.59,6,66.76-14A36.65,36.65,0,0,1,176.28,45.72Z"/><path class="cls-15" d="M200.49,69.46A32.51,32.51,0,0,1,180.21,45h-4.07l.14.72A36.65,36.65,0,0,0,199.06,73.2l2.4-3.33Z"/><path class="cls-10" d="M300,125.26a32.32,32.32,0,0,1-15.65-7.6,22,22,0,0,0-12.47-5.4c-.73-.07-1.48-.11-2.23-.11a22.92,22.92,0,0,0-9.26,1.94,32.16,32.16,0,0,1-13,2.73c-.5,0-1,0-1.52,0a32,32,0,0,1-16.78-5.73,32.76,32.76,0,0,1-13.9-22.49l0-.31a23,23,0,0,0-13.65-18.38l-2.4,3.33a19.06,19.06,0,0,1,12.08,15.54l0,.33a36.73,36.73,0,0,0,15.59,25.26,35.89,35.89,0,0,0,18.88,6.45c.55,0,1.13,0,1.7,0A36.2,36.2,0,0,0,262,117.76a18.89,18.89,0,0,1,7.65-1.61c.57,0,1.17,0,1.84.09a18,18,0,0,1,10.21,4.41,36.35,36.35,0,0,0,17.58,8.54l.72.14v-4.07Z"/><path class="cls-4" d="M290.32,110.92c-.57-.5-1.16-1-1.76-1.43l-.42-.32c-.61-.44-1.22-.87-1.85-1.26l-.2-.12c-.58-.36-1.18-.7-1.78-1l-.45-.23q-1-.51-2-.93l-.34-.14c-.61-.25-1.23-.47-1.85-.68l-.44-.15-.69-.2a32.21,32.21,0,0,0-6.65-1.21c-.74,0-1.48-.08-2.23-.08a32,32,0,0,0-12.88,2.7,23.19,23.19,0,0,1-9.42,2q-.56,0-1.11,0c-.57,0-1.13-.07-1.69-.14-.19,0-.37-.06-.56-.09-.36,0-.73-.1-1.09-.18s-.44-.1-.65-.15-.66-.14-1-.23l-.67-.21-.91-.29a24,24,0,0,1-5.64-2.92,24.43,24.43,0,0,1-3.67-3.15c-.37-.39-.72-.79-1.07-1.21-.08-.1-.17-.2-.25-.31a23.33,23.33,0,0,1-1.86-2.65,4,4,0,0,1-.2-.35A22,22,0,0,1,225.56,93l-.15-.38c-.19-.5-.38-1-.54-1.55s-.29-1-.42-1.59l-.09-.41c-.11-.54-.21-1.09-.28-1.64l0-.26c-.09-.78-.22-1.55-.37-2.32,0-.25-.11-.49-.17-.74-.11-.51-.23-1-.37-1.53-.08-.28-.16-.56-.25-.84q-.21-.69-.45-1.38c-.1-.28-.2-.56-.31-.84-.17-.45-.35-.89-.55-1.33-.1-.24-.2-.48-.31-.72a32.41,32.41,0,0,0-3.44-5.75A31.93,31.93,0,0,0,213.5,67l-.16-.15-.15-.13c-.46-.39-.93-.78-1.41-1.15l-.33-.25c-.51-.39-1-.76-1.58-1.12l-.32-.2q-.75-.48-1.53-.93l-.26-.15c-.57-.32-1.16-.62-1.76-.9l-.4-.19c-.62-.28-1.24-.55-1.88-.8q-.72-.27-1.41-.6l-.47-.23c-.3-.15-.6-.29-.89-.45l-.54-.31c-.26-.15-.52-.3-.77-.46s-.36-.24-.54-.36l-.71-.48-.53-.41c-.22-.17-.45-.34-.66-.52s-.34-.29-.51-.44-.42-.36-.62-.55l-.49-.48c-.19-.19-.38-.38-.56-.58l-.47-.52-.52-.6c-.15-.18-.29-.37-.43-.55s-.33-.42-.49-.64l-.4-.58c-.14-.21-.29-.43-.43-.66s-.25-.4-.37-.6l-.39-.69-.33-.63c-.12-.23-.23-.47-.35-.71s-.19-.43-.28-.65-.21-.49-.31-.73L190,47c-.09-.24-.18-.49-.26-.75s-.14-.46-.2-.69L189.4,45h-9.19a32.51,32.51,0,0,0,20.28,24.46,23.07,23.07,0,0,1,14.62,18.79l0,.31a32.76,32.76,0,0,0,13.9,22.49,32,32,0,0,0,16.78,5.73c.51,0,1,0,1.52,0a32.16,32.16,0,0,0,13-2.73,22.92,22.92,0,0,1,9.26-1.94c.75,0,1.5,0,2.23.11a22,22,0,0,1,12.47,5.4,32.32,32.32,0,0,0,15.65,7.6v-9.2A23.34,23.34,0,0,1,290.32,110.92Z"/><path class="cls-3" d="M212.47,75.18l-2.05,1.33-.17.11a23.22,23.22,0,0,1,4.86,11.63l0,.31a32.76,32.76,0,0,0,13.9,22.49l1.9-2.84a6.25,6.25,0,0,0-.57-7.78c-.37-.39-.72-.79-1.07-1.21-.08-.1-.17-.2-.25-.31a23.33,23.33,0,0,1-1.86-2.65,4,4,0,0,1-.2-.35A22,22,0,0,1,225.56,93l-.15-.38c-.19-.5-.38-1-.54-1.55s-.29-1-.42-1.59l-.09-.41c-.11-.54-.21-1.09-.28-1.64l0-.26c-.09-.78-.22-1.55-.37-2.32,0-.25-.11-.49-.17-.74-.11-.51-.23-1-.37-1.53-.08-.28-.16-.56-.25-.84q-.21-.69-.45-1.38c-.1-.28-.2-.56-.31-.84-.17-.45-.35-.89-.55-1.33-.1-.24-.2-.48-.31-.72A6.13,6.13,0,0,0,212.47,75.18Z"/><path class="cls-3" d="M288.56,109.49l-.42-.32c-.61-.44-1.22-.87-1.85-1.26l-.2-.12c-.58-.36-1.18-.7-1.78-1l-.45-.23q-1-.51-2-.93l-.34-.14c-.61-.25-1.23-.47-1.85-.68l-.44-.15-.69-.2a5.53,5.53,0,0,0-6.65,5.43v2.39a22,22,0,0,1,12.47,5.4,32.32,32.32,0,0,0,15.65,7.6v-9.2a23.34,23.34,0,0,1-9.68-5.14C289.75,110.42,289.16,110,288.56,109.49Z"/><path class="cls-16" d="M200.49,69.46a23.11,23.11,0,0,1,9.76,7.16l.17-.11,2.05-1.33h0l.35-.23A5,5,0,0,0,213.5,67l-.16-.15-.15-.13c-.46-.39-.93-.78-1.41-1.15l-.33-.25c-.51-.39-1-.76-1.58-1.12l-.32-.2q-.75-.48-1.53-.93l-.26-.15c-.57-.32-1.16-.62-1.76-.9l-.4-.19c-.62-.28-1.24-.55-1.88-.8q-.72-.27-1.41-.6l-.47-.23c-.3-.15-.6-.29-.89-.45l-.54-.31c-.26-.15-.52-.3-.77-.46s-.36-.24-.54-.36l-.71-.48-.53-.41c-.22-.17-.45-.34-.66-.52s-.34-.29-.51-.44-.42-.36-.62-.55l-.49-.48c-.19-.19-.38-.38-.56-.58l-.47-.52-.52-.6c-.15-.18-.29-.37-.43-.55s-.33-.42-.49-.64l-.4-.58c-.14-.21-.29-.43-.43-.66s-.25-.4-.37-.6l-.39-.69-.33-.63c-.12-.23-.23-.47-.35-.71s-.19-.43-.28-.65-.21-.49-.31-.73L190,47c-.09-.24-.18-.49-.26-.75s-.14-.46-.2-.69L189.4,45h-9.19A32.51,32.51,0,0,0,200.49,69.46Z"/><path class="cls-16" d="M271.88,105.38a2.23,2.23,0,0,0-2.23-2.23,32,32,0,0,0-12.88,2.7,23.19,23.19,0,0,1-9.42,2q-.56,0-1.11,0c-.57,0-1.13-.07-1.69-.14-.19,0-.37-.06-.56-.09-.36,0-.73-.1-1.09-.18s-.44-.1-.65-.15-.66-.14-1-.23l-.67-.21-.91-.29-.09,0a8.07,8.07,0,0,0-9.5,3l-1,1.58a32,32,0,0,0,16.78,5.73c.51,0,1,0,1.52,0a32.16,32.16,0,0,0,13-2.73,22.92,22.92,0,0,1,9.26-1.94c.75,0,1.5,0,2.23.11v-6.88Z"/><path class="cls-4" d="M189.55,45.51c.06.23.13.46.2.69s.17.51.26.75l.24.68c.1.24.2.49.31.73s.18.44.28.65.23.48.35.71l.33.63.39.69c.12.2.24.4.37.6s.29.45.43.66l.4.58c.16.22.32.43.49.64s.28.37.43.55l.52.6.47.52c.18.2.37.39.56.58l.49.48c.2.19.41.37.62.55s.33.3.51.44.44.35.66.52l.53.41.71.48c.18.12.35.25.54.36s.51.31.77.46l.54.31c.29.16.59.3.89.45l.47.23q.69.33,1.41.6c.64.25,1.26.52,1.88.8l.4.19c.6.28,1.19.58,1.76.9l.26.15q.78.45,1.53.93l.32.2c.54.36,1.07.73,1.58,1.12l.33.25c.48.37.95.76,1.41,1.15l.15.13.16.15a31.93,31.93,0,0,1,4.32,4.68,32.41,32.41,0,0,1,3.44,5.75c.11.24.21.48.31.72.2.44.38.88.55,1.33.11.28.21.56.31.84q.24.69.45,1.38c.09.28.17.56.25.84.14.51.26,1,.37,1.53.06.25.12.49.17.74.15.77.28,1.54.37,2.32l0,.26c.07.55.17,1.1.28,1.64l.09.41c.13.54.26,1.07.42,1.59s.35,1,.54,1.55l.15.38A22,22,0,0,0,227,95.91a4,4,0,0,0,.2.35,23.33,23.33,0,0,0,1.86,2.65c.08.11.17.21.25.31.35.42.7.82,1.07,1.21a24.43,24.43,0,0,0,3.67,3.15,24,24,0,0,0,5.64,2.92l.91.29.67.21c.32.09.65.16,1,.23s.43.11.65.15.73.13,1.09.18c.19,0,.37.07.56.09.56.07,1.12.12,1.69.14q.56,0,1.11,0a23.19,23.19,0,0,0,9.42-2,32,32,0,0,1,12.88-2.7c.75,0,1.49,0,2.23.08a32.21,32.21,0,0,1,6.65,1.21l.69.2.44.15c.62.21,1.24.43,1.85.68l.34.14q1,.42,2,.93l.45.23c.6.32,1.2.66,1.78,1l.2.12c.63.39,1.24.82,1.85,1.26l.42.32c.6.46,1.19.93,1.76,1.43a23.34,23.34,0,0,0,9.68,5.14h0V111.9a19.61,19.61,0,0,1-7-4c-.58-.52-1.21-1-2-1.62l-.48-.36c-.74-.55-1.42-1-2.08-1.43l-.23-.14c-.64-.39-1.29-.76-2-1.14l-.08,0-.43-.22c-.76-.39-1.52-.74-2.26-1l-.3-.12-.09,0c-.67-.27-1.37-.53-2.08-.77l-.15,0-.34-.11c-.2-.07-.4-.12-.59-.17l-.2,0a35.55,35.55,0,0,0-7.48-1.37c-.92-.06-1.75-.09-2.52-.09a35.84,35.84,0,0,0-14.49,3,19.25,19.25,0,0,1-7.81,1.63l-.93,0c-.45,0-.92-.06-1.38-.12l-.14,0-.33,0-.13,0-.76-.13-.24,0-.29-.07-.21,0c-.2-.05-.4-.09-.59-.15a2,2,0,0,1-.29-.08l-.27-.09-.19-.06c-.19-.06-.38-.11-.56-.18a20.12,20.12,0,0,1-4.7-2.42,20.79,20.79,0,0,1-3.06-2.64c-.27-.28-.56-.6-.9-1l-.21-.26a19.84,19.84,0,0,1-1.54-2.21l-.18-.29a19.89,19.89,0,0,1-1.18-2.41l-.12-.32a13.44,13.44,0,0,1-.45-1.27c-.12-.38-.23-.8-.35-1.32,0-.11,0-.22-.07-.34-.11-.52-.19-.95-.24-1.35l0-.23c-.1-.82-.23-1.67-.42-2.59,0-.2-.08-.4-.13-.6l-.05-.23c-.1-.47-.25-1.08-.42-1.72-.07-.28-.16-.55-.24-.82l0-.13c-.17-.57-.34-1.07-.5-1.55l-.35-1c-.19-.48-.39-1-.62-1.49l0-.1c-.11-.24-.21-.47-.32-.7a35.6,35.6,0,0,0-8.69-11.71l-.22-.2-.15-.13c-.5-.44-1-.86-1.6-1.31l-.09-.07-.28-.21c-.58-.44-1.18-.86-1.78-1.26l-.25-.16-.1-.06c-.57-.37-1.15-.72-1.73-1.05l-.05,0-.24-.14c-.62-.34-1.27-.67-2-1l-.46-.22c-.78-.36-1.45-.64-2.1-.89-.39-.15-.78-.32-1.17-.5a.61.61,0,0,1-.14-.07l-.25-.12-.14-.07-.6-.3-.2-.12-.24-.14-.16-.09-.49-.29-.22-.15-.23-.16-.16-.1c-.14-.1-.29-.19-.42-.29l-.25-.19-.19-.15-.14-.11-.41-.32-.26-.22-.17-.15-.1-.09-.41-.36-.27-.27-.13-.13-.08-.09c-.14-.13-.27-.26-.4-.4l-.27-.3-.11-.12-.06-.07-.38-.44-.26-.33-.1-.13,0,0c-.12-.16-.25-.32-.36-.48l-.28-.39-.05-.09c-.14-.2-.26-.37-.37-.55l-.26-.43,0-.08-.33-.56-.27-.52c-.1-.2-.2-.39-.29-.59l-.24-.54c-.08-.21-.17-.41-.25-.61s-.13-.37-.2-.56l-.21-.62H189.4Z"/></g></svg>